<svg width="32" height="33" viewBox="0 0 32 33" fill="none" xmlns="http://www.w3.org/2000/svg">
<path fill-rule="evenodd" clip-rule="evenodd" d="M2.64505 17.458C2.72219 17.3391 2.80429 17.2218 2.89141 17.1065L12.5824 4.27563C12.639 4.20073 12.6969 4.12765 12.756 4.0564L13.4927 3.07636C15.5041 0.400451 19.5721 0.56768 21.357 3.39965L21.9229 4.29742C22.0079 4.41169 22.0896 4.5301 22.1679 4.65263L29.7431 16.5164C31.0884 18.6233 30.944 21.3527 29.384 23.306L24.9583 28.8475C23.4024 30.7956 20.7816 31.5416 18.433 30.7049L5.5926 26.1305C5.49945 26.0973 5.40779 26.0621 5.31763 26.025L4.25301 25.649C1.19217 24.5681 0.0760391 20.8158 2.04849 18.2377L2.64505 17.458ZM22.8453 25.536L24.8939 22.9709L22.6143 23.072C22.7023 23.8857 22.8554 24.7153 22.8453 25.536ZM22.2137 19.3685L25.0704 19.2418C25.8847 19.2057 26.3566 18.3039 25.922 17.6144L21.2163 10.1485L22.2137 19.3685ZM18.4923 19.5335L7.58307 20.0172C6.68632 20.0569 6.14762 19.0354 6.68696 18.3179L15.2984 7.03744C15.8811 6.27586 17.0949 6.61527 17.198 7.56863L18.4923 19.5335ZM9.73663 23.6429L18.8929 23.237L19.1207 25.3433C19.2048 26.1208 18.4484 26.7195 17.711 26.4591L15.6229 25.7217L15.4161 25.6486L15.4144 25.648L9.73663 23.6429Z" fill="white"/>
<path fill-rule="evenodd" clip-rule="evenodd" d="M4.25291 25.6492C1.19206 24.5683 0.0759368 20.8159 2.04838 18.2379C5.59007 13.6087 9.06897 8.92743 12.5823 4.2758C13.0958 3.59593 13.5711 2.85367 14.224 2.29752C16.37 0.469492 19.768 0.878875 21.3569 3.39982C21.6224 3.82105 21.9001 4.23357 22.1678 4.6528L29.743 16.5166C31.0883 18.6235 30.9439 21.3529 29.3839 23.3062L24.9582 28.8476C23.4023 30.7958 20.7815 31.5418 18.4329 30.7051C13.7059 29.0211 8.98434 27.3201 4.25291 25.6492ZM23.063 4.08118L30.6382 15.945C32.2281 18.435 32.0575 21.6606 30.2139 23.969L25.7881 29.5105C23.9494 31.8128 20.8521 32.6945 18.0765 31.7057C13.3504 30.022 8.62975 28.3213 3.89921 26.6507C0.158181 25.3296 -1.20597 20.7434 1.2048 17.5924C4.74558 12.9645 8.22264 8.28562 11.7347 3.63564C12.2498 2.95365 12.8159 2.30714 13.3574 1.64614C15.9664 -0.76988 20.2684 -0.319184 22.2555 2.83346C22.5199 3.25293 22.7964 3.66365 23.063 4.08118ZM21.2162 10.1487L22.2136 19.3687L23.2852 19.3266L25.0703 19.242C25.8846 19.2059 26.3564 18.3041 25.9219 17.6145L22.4886 12.0976L20.9485 7.68302L21.2162 10.1487ZM23.1624 18.2634L25.0233 18.1809L22.7661 14.5996L23.1624 18.2634ZM15.9765 24.7203L15.6228 25.7218L9.73652 23.6431L6.82164 22.6131L11.6838 23.5159L17.8151 23.2849L18.8928 23.2371L19.1206 25.3435C19.2047 26.1209 18.4483 26.7196 17.7109 26.4592L15.6228 25.7218L15.9765 24.7203L18.0646 25.4577L17.944 24.3424L15.2453 24.4621L15.9765 24.7203ZM26.3655 21.1791L24.0818 23.0721H23.7101H22.6142L22.8452 25.5362L26.3655 21.1791ZM18.4922 19.5337L17.1979 7.56879C17.0948 6.61544 15.881 6.27602 15.2983 7.03761L6.68686 18.318C6.14752 19.0356 6.68621 20.0571 7.58296 20.0174L17.4433 19.5802L18.4922 19.5337ZM16.1419 7.68302L17.3144 18.5227L7.53591 18.9562L16.1419 7.68302Z" fill="black"/>
<path d="M18.8928 23.2371L18.4922 19.5337L17.4433 19.5802L17.8151 23.2849L18.8928 23.2371Z" fill="black"/>
<path d="M22.2136 19.3687L22.6142 23.0721H23.7101L23.2852 19.3266L22.2136 19.3687Z" fill="black"/>
</svg>
